<svg version="1.1" id="Layer_1" xmlns="http://www.w3.org/2000/svg" xmlns:xlink="http://www.w3.org/1999/xlink" x="0px" y="0px"
	 width="100%" viewBox="0 0 1024 1024" enable-background="new 0 0 1024 1024" xml:space="preserve">
<path fill="#010101" opacity="1.000000" stroke="none" 
	d="
M1.000000,542.000000 
	C1.000000,523.645752 1.000000,505.291534 1.393359,486.301575 
	C2.939266,473.070221 3.681866,460.421265 5.312398,447.887848 
	C14.356161,378.371094 36.311028,313.170990 72.251167,252.945236 
	C126.215675,162.515579 200.849747,94.531746 296.073639,49.465183 
	C352.294678,22.857475 411.582550,7.488790 473.626099,2.779487 
	C477.440460,2.489965 481.209747,1.606904 485.000000,1.000000 
	C502.687561,1.000000 520.375122,1.000000 538.707275,1.392318 
	C587.964294,4.650842 635.397888,13.451640 681.413635,29.640083 
	C776.788147,63.193066 855.693115,119.872749 917.621826,199.594345 
	C979.564270,279.333557 1014.633423,369.899963 1023.200867,470.620972 
	C1023.525513,474.437378 1024.388062,478.208038 1025.000000,482.000000 
	C1025.000000,502.687561 1025.000000,523.375122 1024.597412,544.673828 
	C1024.069214,546.270264 1023.894043,547.252075 1023.825195,548.241272 
	C1020.958130,589.420105 1013.562622,629.770752 1000.790466,669.023376 
	C967.986633,769.839355 909.851257,853.153442 826.066101,918.059814 
	C746.554077,979.655945 656.313416,1014.519592 556.026489,1023.173035 
	C550.340759,1023.663696 544.675049,1024.385742 539.000000,1025.000000 
	C520.979126,1025.000000 502.958221,1025.000000 484.266479,1024.622070 
	C473.971802,1023.420776 464.318390,1022.850952 454.729034,1021.732422 
	C400.259583,1015.378540 347.944702,1001.132690 298.275879,977.800415 
	C197.985550,930.688293 120.375580,858.861755 65.997734,762.341370 
	C29.189350,697.006653 8.309836,626.676086 2.723446,551.842834 
	C2.476693,548.537415 1.589093,545.279846 1.000000,542.000000 
M170.989792,545.977173 
	C171.478577,549.965698 174.591995,548.766357 177.201859,549.219482 
	C177.201859,549.219482 177.288422,549.516785 177.045074,550.303528 
	C174.857025,550.877747 172.668961,551.451904 170.328354,552.066101 
	C171.125076,555.730713 173.980698,556.056274 176.938995,556.633728 
	C176.279205,557.048035 175.619415,557.462341 174.602463,557.443176 
	C174.070084,557.968384 173.537689,558.493652 172.739288,559.211731 
	C172.739288,559.211731 172.422699,559.299805 171.583145,559.184326 
	C167.147125,560.414368 161.305771,559.002319 159.680054,565.515747 
	C152.150314,567.176331 153.461136,573.351379 153.497742,578.453369 
	C153.517563,581.216187 154.409744,585.765869 156.073441,586.386475 
	C161.004684,588.226074 166.512375,588.529053 171.806808,589.355347 
	C172.018967,589.388428 172.354355,588.632080 172.347794,588.641235 
	C171.069305,586.878235 169.971451,585.364319 168.971863,583.857300 
	C168.971863,583.857300 168.877670,583.876282 169.679031,583.963074 
	C173.075836,582.787354 178.223053,583.938416 178.373901,577.363281 
	C179.913040,576.566711 181.452179,575.770142 183.445389,575.529846 
	C185.272659,576.068481 187.099930,576.607056 187.563126,576.743591 
	C189.210938,574.817261 190.188919,573.853760 190.945724,572.739929 
	C191.741089,571.569275 192.324722,570.254822 193.000000,569.000000 
	C193.000000,569.000000 193.003113,569.000427 193.433960,568.855713 
	C193.710297,568.699890 193.900146,568.472107 194.512054,567.798157 
	C195.599564,567.163818 196.687073,566.529419 198.297318,565.825134 
	C198.531342,565.576782 198.765366,565.328491 199.331726,564.879028 
	C199.331726,564.879028 199.717377,564.832825 200.492371,564.947632 
	C201.655106,563.946167 202.817825,562.944641 204.254440,561.753174 
	C204.254440,561.753174 204.587769,561.755188 205.431274,561.905884 
	C209.793106,559.498657 214.219696,557.194153 218.425583,554.539856 
	C218.892090,554.245483 218.595245,551.376465 217.801239,550.698608 
	C215.136154,548.423584 212.002258,546.709351 209.204681,544.574829 
	C206.047546,542.166016 203.060226,539.534607 200.680176,536.983704 
	C201.288467,536.662964 201.896759,536.342163 202.505051,536.021423 
	C202.211365,535.742615 201.917664,535.463745 201.623978,535.184937 
	C201.082932,535.789978 200.541885,536.394958 199.133240,537.003906 
	C197.110748,536.996704 195.088257,536.989441 192.838501,536.737976 
	C192.838501,536.737976 192.708282,536.430908 192.859970,535.636475 
	C192.732452,535.004761 192.822632,534.034424 192.445053,533.791687 
	C186.085510,529.703064 179.713272,525.629700 173.242050,521.721497 
	C170.341217,519.969543 167.353119,518.152588 164.158295,517.149963 
	C160.161346,515.895569 154.631012,519.019409 154.035690,522.239563 
	C152.174911,532.304626 154.034470,537.606628 159.999146,539.817505 
	C160.474899,541.458679 160.950638,543.099854 161.264023,544.180969 
	C164.422363,544.383667 166.914673,544.543640 169.943176,544.803955 
	C170.281281,544.943787 170.619400,545.083679 170.989792,545.977173 
M873.490234,686.046326 
	C856.116150,698.415833 835.770935,702.777832 814.884277,708.261597 
	C811.509033,681.735352 808.539795,655.786987 804.769165,629.955688 
	C803.084290,618.413757 804.737549,607.918152 808.419434,596.905762 
	C824.502930,548.800232 838.120117,500.161438 837.472290,448.679779 
	C837.122009,420.846649 837.645325,392.960480 831.833984,365.579651 
	C830.215454,357.953827 827.029541,350.348755 823.056335,343.624146 
	C819.237305,337.160431 812.013062,336.069885 806.111755,340.715942 
	C801.581116,344.282898 797.193420,349.025330 794.852966,354.199799 
	C786.786987,372.032562 784.664673,391.355804 783.089966,410.616608 
	C781.831726,426.006531 781.439697,441.467316 780.691284,456.338287 
	C777.595154,456.200531 774.295593,455.506866 771.187073,456.005096 
	C752.472229,459.004639 733.768311,462.099640 715.131165,465.544098 
	C707.404114,466.972168 699.851440,469.343170 691.698914,471.417816 
	C692.966248,458.006256 694.104675,445.260773 695.385376,432.529572 
	C700.469055,381.994354 702.005920,331.429504 695.712341,280.902740 
	C694.681396,272.625916 692.323547,264.203156 688.884155,256.616119 
	C684.564697,247.087601 677.028564,245.524307 668.317139,251.436890 
	C663.680481,254.583893 659.467712,258.536499 655.639954,262.660461 
	C643.816772,275.398560 637.500305,291.195770 631.888367,307.270203 
	C618.778870,344.819977 611.783997,383.804901 605.009399,422.838043 
	C599.692078,453.475342 596.729492,484.551727 588.049561,514.555481 
	C587.388672,516.840027 585.769287,519.390686 583.836365,520.676636 
	C570.209595,529.742310 557.192383,539.485107 545.806763,551.343628 
	C525.591736,572.398438 507.578949,594.914307 497.806427,622.924622 
	C493.309265,635.814514 490.853912,649.040894 493.997284,662.646790 
	C496.239899,672.353821 502.974701,677.713684 512.661499,677.313904 
	C523.591858,676.862915 533.628479,673.299927 541.890320,665.999146 
	C553.135132,656.062317 559.783081,642.913818 565.858215,629.542969 
	C579.887390,598.666016 588.991577,566.152832 597.096191,533.346497 
	C598.223572,528.782959 600.178894,525.650757 604.430664,523.586914 
	C622.219910,514.951965 639.866821,506.021210 657.711060,497.503082 
	C663.438049,494.769257 669.612183,492.972107 675.269348,490.862915 
	C669.705811,570.268066 664.181152,649.118103 658.635925,728.262390 
	C657.061340,728.415527 655.264832,728.661621 653.460449,728.754761 
	C627.839539,730.077148 602.231384,731.849670 576.593384,732.602600 
	C475.545258,735.570251 374.677460,734.221741 274.565491,717.893738 
	C247.289124,713.445007 220.142807,708.289368 194.011124,698.960938 
	C183.816345,695.321655 173.661530,691.415222 165.755432,683.574463 
	C159.278870,677.151367 159.171707,670.435486 165.454315,663.862366 
	C167.773163,661.436279 170.585281,659.481750 173.172440,657.312134 
	C172.961426,656.771301 172.750397,656.230408 172.539368,655.689514 
	C158.082779,659.914307 143.423386,663.567139 129.250717,668.592590 
	C121.565453,671.317688 114.166817,675.660034 107.624359,680.582642 
	C100.383080,686.030945 100.840408,693.839783 108.486069,698.787048 
	C114.968109,702.981445 122.111748,706.583008 129.444565,708.960327 
	C165.874268,720.771057 203.618332,726.260681 241.460693,730.953796 
	C299.205963,738.115295 357.245148,741.658936 415.361328,743.736206 
	C494.659149,746.570374 573.968628,747.045593 653.258667,743.149475 
	C654.987122,743.064514 656.723450,743.138733 657.453430,743.138733 
	C657.453430,752.403076 657.666931,761.058594 657.411133,769.700195 
	C656.783569,790.898621 656.519409,812.076355 663.102844,832.568726 
	C669.403015,852.179504 680.997070,867.000061 701.647095,873.033325 
	C703.188293,873.483582 705.413635,874.162415 706.387634,873.453186 
	C708.471497,871.935791 710.927917,869.800842 711.444458,867.514954 
	C712.299500,863.731506 709.429932,861.497498 705.880371,860.478699 
	C690.578796,856.086792 681.685364,845.288757 676.561890,830.881836 
	C675.063293,826.667725 673.941589,822.281128 673.066528,817.890015 
	C668.584534,795.398926 670.781677,772.735901 671.553162,750.115173 
	C671.641907,747.514038 671.971619,744.921082 672.122864,743.119080 
	C717.030823,738.793518 761.362244,734.523560 805.867126,730.236816 
	C805.846802,730.166565 806.016113,730.627075 806.112976,731.102295 
	C811.365601,756.879089 817.073792,782.563904 827.037415,807.000732 
	C831.039795,816.816956 836.230286,826.169922 841.226074,835.549377 
	C843.195129,839.246094 846.828918,840.450256 850.612000,838.063232 
	C854.048096,835.895203 854.970947,832.564819 852.688660,829.012207 
	C840.648438,810.270935 833.999329,789.350647 828.294800,768.112732 
	C824.692444,754.701172 821.870605,741.079895 818.779236,727.896423 
	C839.871094,723.476746 860.240967,719.388794 880.520874,714.894958 
	C893.903748,711.929504 906.892761,707.697998 917.893311,699.050842 
	C926.972534,691.914062 926.941833,684.493042 918.018372,677.341614 
	C909.418518,670.449524 883.537476,660.439941 872.333435,659.672729 
	C883.268921,672.804260 883.524414,676.719299 873.490234,686.046326 
M332.374054,602.786560 
	C327.215607,615.948425 322.462891,629.287964 316.798615,642.228394 
	C309.268738,659.431030 301.193085,676.402954 292.967865,693.286804 
	C291.104462,697.111816 287.661713,700.167542 284.945953,703.577332 
	C284.245514,703.469788 283.545105,703.362244 282.844696,703.254761 
	C281.239288,697.976074 278.644012,692.778625 278.202942,687.404358 
	C276.460358,666.171997 274.748505,644.900940 274.196625,623.613831 
	C272.538605,559.658813 272.128723,495.664673 269.845673,431.735291 
	C268.481995,393.551056 261.811188,355.925995 250.005554,319.425781 
	C243.313126,298.734406 234.782974,278.848663 220.112839,262.364532 
	C204.081802,244.351227 184.671356,235.011398 160.019516,240.857529 
	C143.865387,244.688416 131.084824,254.098282 119.983513,265.958099 
	C100.001038,287.305878 85.263390,312.228546 71.820168,337.951416 
	C65.969093,349.147156 60.747669,360.674164 55.334820,372.095520 
	C53.500572,375.965881 54.395439,379.345459 58.210094,381.462585 
	C61.586151,383.336304 65.089050,381.790649 67.233826,377.802063 
	C67.626389,377.072021 67.887520,376.271759 68.272728,375.537170 
	C79.080132,354.927338 89.333549,334.000244 100.879341,313.812378 
	C110.978638,296.153748 123.025925,279.669281 138.826370,266.484375 
	C150.436142,256.796417 163.571579,250.739960 179.226318,252.901947 
	C193.660263,254.895325 204.155838,263.339386 212.875153,274.345886 
	C226.359299,291.367157 233.919510,311.257507 239.932266,331.776001 
	C252.763702,375.563171 257.425964,420.590332 258.598938,465.954834 
	C259.873688,515.256409 259.807953,564.591309 260.808777,613.901855 
	C261.278412,637.039673 262.642090,660.169434 264.084595,683.272644 
	C264.655029,692.408386 266.762604,701.408203 271.962250,709.279907 
	C277.308960,717.374268 286.517578,719.066589 293.853333,712.713867 
	C297.811768,709.285828 301.594727,705.136353 304.016907,700.551575 
	C310.922607,687.480591 317.732941,674.289001 323.440857,660.667114 
	C354.325317,586.961731 380.344604,511.533264 402.156403,434.663269 
	C405.647034,422.361481 408.219849,409.792175 410.979889,397.294159 
	C411.878021,393.227203 410.250092,389.977386 405.862854,388.977356 
	C401.992737,388.095184 399.092438,390.789459 397.921051,395.302704 
	C391.866333,418.631104 386.746490,442.270508 379.328278,465.162262 
	C364.466797,511.023224 348.324554,556.469177 332.374054,602.786560 
M470.876434,560.491882 
	C471.392761,557.392456 472.017883,554.306519 472.406006,551.191101 
	C473.861816,539.504883 475.137512,527.795410 476.691620,516.122681 
	C477.458313,510.364075 475.747253,506.665161 471.439270,506.004211 
	C467.322296,505.372559 464.494965,507.962982 463.536804,513.582947 
	C462.261871,521.061096 461.159821,528.568787 459.920593,536.464661 
	C447.147522,530.081299 435.538208,532.517822 425.584290,540.912964 
	C418.954865,546.504211 412.499847,553.034363 408.112579,560.419128 
	C392.956390,585.930237 388.393616,614.264038 389.381531,643.477234 
	C389.608398,650.186768 392.051483,657.287415 395.167603,663.335876 
	C401.606323,675.833801 414.781799,678.296692 425.905548,669.647949 
	C429.666992,666.723450 433.597717,663.343262 435.853302,659.283569 
	C442.204559,647.852295 447.726746,635.960327 453.571899,624.247986 
	C454.074982,623.239929 454.548798,622.217224 455.473175,620.290710 
	C456.054688,627.806396 456.379974,634.111267 457.061188,640.377441 
	C458.483307,653.459595 460.282623,666.478943 465.981323,678.570190 
	C471.363068,689.988953 480.564484,695.909607 492.945587,697.169861 
	C497.821930,697.666321 500.954559,695.591125 501.479523,691.661560 
	C502.002258,687.748596 499.495575,684.631348 494.719696,684.102295 
	C485.186829,683.046204 479.212799,677.821960 476.254547,668.958252 
	C474.941589,665.024292 473.728546,661.013428 472.971954,656.944153 
	C467.073517,625.219666 467.987793,593.321472 470.876434,560.491882 
M198.878204,573.435425 
	C197.812500,572.731384 196.746811,572.027405 195.681107,571.323364 
	C195.240891,572.235107 194.800659,573.146851 194.360458,574.058533 
	C195.785477,574.096252 197.210495,574.133972 198.878204,573.435425 
M203.727051,566.317383 
	C202.854294,567.199524 201.981552,568.081665 201.108795,568.963806 
	C201.347397,569.337036 201.585999,569.710327 201.824600,570.083618 
	C203.096375,569.768860 204.368134,569.454041 205.639923,569.139343 
	C205.239609,568.215149 204.839310,567.290894 203.727051,566.317383 
M156.915512,561.218994 
	C155.782578,561.332520 154.649628,561.446045 153.516693,561.559509 
	C153.661560,562.090576 153.806442,562.621643 153.951309,563.152710 
	C155.114838,562.659302 156.278366,562.165894 156.915512,561.218994 
M155.365982,514.916321 
	C155.116516,514.344727 154.867035,513.773132 154.617523,513.201538 
	C154.142319,513.677979 153.667114,514.154419 153.191925,514.630920 
	C153.763214,514.880127 154.334488,515.129395 155.365982,514.916321 
M156.938797,544.791199 
	C156.138397,544.382141 155.337997,543.973022 154.537598,543.563904 
	C154.352234,544.021057 154.166870,544.478271 153.981522,544.935425 
	C154.756866,544.935425 155.532227,544.935425 156.938797,544.791199 
M151.149734,527.490540 
	C151.572113,527.790466 151.994476,528.090332 152.416855,528.390259 
	C152.529373,527.946411 152.641891,527.502563 152.754410,527.058716 
	C152.260254,527.005737 151.766113,526.952698 151.149734,527.490540 
M174.527405,656.509766 
	C174.527405,656.509766 174.482193,656.492554 174.527405,656.509766 
z"/>
<path fill="#FCFDFE" opacity="1.000000" stroke="none" 
	d="
M484.531342,1.000000 
	C481.209747,1.606904 477.440460,2.489965 473.626099,2.779487 
	C411.582550,7.488790 352.294678,22.857475 296.073639,49.465183 
	C200.849747,94.531746 126.215675,162.515579 72.251167,252.945236 
	C36.311028,313.170990 14.356161,378.371094 5.312398,447.887848 
	C3.681866,460.421265 2.939266,473.070221 1.393359,485.832916 
	C1.000000,324.406342 1.000000,162.812653 1.000000,1.000000 
	C162.020828,1.000000 323.041748,1.000000 484.531342,1.000000 
z"/>
<path fill="#FCFDFE" opacity="1.000000" stroke="none" 
	d="
M1025.000000,481.531342 
	C1024.388062,478.208038 1023.525513,474.437378 1023.200867,470.620972 
	C1014.633423,369.899963 979.564270,279.333557 917.621826,199.594345 
	C855.693115,119.872749 776.788147,63.193066 681.413635,29.640083 
	C635.397888,13.451640 587.964294,4.650842 539.175903,1.392318 
	C700.926697,1.000000 862.853333,1.000000 1025.000000,1.000000 
	C1025.000000,161.020828 1025.000000,321.041748 1025.000000,481.531342 
z"/>
<path fill="#FCFDFE" opacity="1.000000" stroke="none" 
	d="
M1.000000,542.468628 
	C1.589093,545.279846 2.476693,548.537415 2.723446,551.842834 
	C8.309836,626.676086 29.189350,697.006653 65.997734,762.341370 
	C120.375580,858.861755 197.985550,930.688293 298.275879,977.800415 
	C347.944702,1001.132690 400.259583,1015.378540 454.729034,1021.732422 
	C464.318390,1022.850952 473.971802,1023.420776 483.797791,1024.622070 
	C323.072906,1025.000000 162.145828,1025.000000 1.000000,1025.000000 
	C1.000000,864.312500 1.000000,703.624939 1.000000,542.468628 
z"/>
<path fill="#FCFDFE" opacity="1.000000" stroke="none" 
	d="
M539.468628,1025.000000 
	C544.675049,1024.385742 550.340759,1023.663696 556.026489,1023.173035 
	C656.313416,1014.519592 746.554077,979.655945 826.066101,918.059814 
	C909.851257,853.153442 967.986633,769.839355 1000.790466,669.023376 
	C1013.562622,629.770752 1020.958130,589.420105 1023.825195,548.241272 
	C1023.894043,547.252075 1024.069214,546.270264 1024.597412,545.142517 
	C1025.000000,704.927551 1025.000000,864.855042 1025.000000,1025.000000 
	C863.312500,1025.000000 701.624939,1025.000000 539.468628,1025.000000 
z"/>
<path fill="#F7F7F8" opacity="1.000000" stroke="none" 
	d="
M873.756592,685.805542 
	C883.524414,676.719299 883.268921,672.804260 872.333435,659.672729 
	C883.537476,660.439941 909.418518,670.449524 918.018372,677.341614 
	C926.941833,684.493042 926.972534,691.914062 917.893311,699.050842 
	C906.892761,707.697998 893.903748,711.929504 880.520874,714.894958 
	C860.240967,719.388794 839.871094,723.476746 818.779236,727.896423 
	C821.870605,741.079895 824.692444,754.701172 828.294800,768.112732 
	C833.999329,789.350647 840.648438,810.270935 852.688660,829.012207 
	C854.970947,832.564819 854.048096,835.895203 850.612000,838.063232 
	C846.828918,840.450256 843.195129,839.246094 841.226074,835.549377 
	C836.230286,826.169922 831.039795,816.816956 827.037415,807.000732 
	C817.073792,782.563904 811.365601,756.879089 806.112976,731.102295 
	C806.016113,730.627075 805.846802,730.166565 805.867126,730.236816 
	C761.362244,734.523560 717.030823,738.793518 672.122864,743.119080 
	C671.971619,744.921082 671.641907,747.514038 671.553162,750.115173 
	C670.781677,772.735901 668.584534,795.398926 673.066528,817.890015 
	C673.941589,822.281128 675.063293,826.667725 676.561890,830.881836 
	C681.685364,845.288757 690.578796,856.086792 705.880371,860.478699 
	C709.429932,861.497498 712.299500,863.731506 711.444458,867.514954 
	C710.927917,869.800842 708.471497,871.935791 706.387634,873.453186 
	C705.413635,874.162415 703.188293,873.483582 701.647095,873.033325 
	C680.997070,867.000061 669.403015,852.179504 663.102844,832.568726 
	C656.519409,812.076355 656.783569,790.898621 657.411133,769.700195 
	C657.666931,761.058594 657.453430,752.403076 657.453430,743.138733 
	C656.723450,743.138733 654.987122,743.064514 653.258667,743.149475 
	C573.968628,747.045593 494.659149,746.570374 415.361328,743.736206 
	C357.245148,741.658936 299.205963,738.115295 241.460693,730.953796 
	C203.618332,726.260681 165.874268,720.771057 129.444565,708.960327 
	C122.111748,706.583008 114.968109,702.981445 108.486069,698.787048 
	C100.840408,693.839783 100.383080,686.030945 107.624359,680.582642 
	C114.166817,675.660034 121.565453,671.317688 129.250717,668.592590 
	C143.423386,663.567139 158.082779,659.914307 172.539368,655.689514 
	C172.750397,656.230408 172.961426,656.771301 173.172440,657.312134 
	C170.585281,659.481750 167.773163,661.436279 165.454315,663.862366 
	C159.171707,670.435486 159.278870,677.151367 165.755432,683.574463 
	C173.661530,691.415222 183.816345,695.321655 194.011124,698.960938 
	C220.142807,708.289368 247.289124,713.445007 274.565491,717.893738 
	C374.677460,734.221741 475.545258,735.570251 576.593384,732.602600 
	C602.231384,731.849670 627.839539,730.077148 653.460449,728.754761 
	C655.264832,728.661621 657.061340,728.415527 658.635925,728.262390 
	C664.181152,649.118103 669.705811,570.268066 675.269348,490.862915 
	C669.612183,492.972107 663.438049,494.769257 657.711060,497.503082 
	C639.866821,506.021210 622.219910,514.951965 604.430664,523.586914 
	C600.178894,525.650757 598.223572,528.782959 597.096191,533.346497 
	C588.991577,566.152832 579.887390,598.666016 565.858215,629.542969 
	C559.783081,642.913818 553.135132,656.062317 541.890320,665.999146 
	C533.628479,673.299927 523.591858,676.862915 512.661499,677.313904 
	C502.974701,677.713684 496.239899,672.353821 493.997284,662.646790 
	C490.853912,649.040894 493.309265,635.814514 497.806427,622.924622 
	C507.578949,594.914307 525.591736,572.398438 545.806763,551.343628 
	C557.192383,539.485107 570.209595,529.742310 583.836365,520.676636 
	C585.769287,519.390686 587.388672,516.840027 588.049561,514.555481 
	C596.729492,484.551727 599.692078,453.475342 605.009399,422.838043 
	C611.783997,383.804901 618.778870,344.819977 631.888367,307.270203 
	C637.500305,291.195770 643.816772,275.398560 655.639954,262.660461 
	C659.467712,258.536499 663.680481,254.583893 668.317139,251.436890 
	C677.028564,245.524307 684.564697,247.087601 688.884155,256.616119 
	C692.323547,264.203156 694.681396,272.625916 695.712341,280.902740 
	C702.005920,331.429504 700.469055,381.994354 695.385376,432.529572 
	C694.104675,445.260773 692.966248,458.006256 691.698914,471.417816 
	C699.851440,469.343170 707.404114,466.972168 715.131165,465.544098 
	C733.768311,462.099640 752.472229,459.004639 771.187073,456.005096 
	C774.295593,455.506866 777.595154,456.200531 780.691284,456.338287 
	C781.439697,441.467316 781.831726,426.006531 783.089966,410.616608 
	C784.664673,391.355804 786.786987,372.032562 794.852966,354.199799 
	C797.193420,349.025330 801.581116,344.282898 806.111755,340.715942 
	C812.013062,336.069885 819.237305,337.160431 823.056335,343.624146 
	C827.029541,350.348755 830.215454,357.953827 831.833984,365.579651 
	C837.645325,392.960480 837.122009,420.846649 837.472290,448.679779 
	C838.120117,500.161438 824.502930,548.800232 808.419434,596.905762 
	C804.737549,607.918152 803.084290,618.413757 804.769165,629.955688 
	C808.539795,655.786987 811.509033,681.735352 814.884277,708.261597 
	C835.770935,702.777832 856.116150,698.415833 873.756592,685.805542 
M679.020203,621.630737 
	C676.882385,656.765137 674.744568,691.899597 672.587463,727.350891 
	C716.716064,723.680481 759.741272,719.810730 802.105530,710.903870 
	C798.818542,687.079224 795.611450,663.833801 792.358826,640.258362 
	C787.486450,649.252258 783.407837,658.222595 778.018311,666.320374 
	C772.717529,674.284790 766.829895,682.164612 759.858704,688.637146 
	C750.248230,697.560181 739.692566,695.686523 732.226440,684.901917 
	C725.429871,675.084473 721.913513,663.798889 721.263062,652.125732 
	C719.328735,617.412659 724.552490,583.713196 738.557922,551.734741 
	C741.509216,544.996155 745.785156,538.561890 750.599731,532.978149 
	C758.326904,524.016541 768.841858,523.037659 779.025146,529.084595 
	C780.247314,529.810242 781.502808,530.479858 783.108521,531.380615 
	C782.385010,509.638306 781.679504,488.438019 780.976135,467.301025 
	C778.692200,467.887238 776.667480,468.714722 774.586792,468.894287 
	C747.955933,471.193085 722.017273,476.939301 696.287781,483.975586 
	C691.176636,485.373352 689.622498,487.844635 689.246155,492.737793 
	C685.964844,535.399841 682.488647,578.046936 679.020203,621.630737 
M643.487305,313.026855 
	C637.954041,334.433746 631.381958,355.636444 627.124756,377.294189 
	C620.289185,412.068146 615.034546,447.151703 608.997803,482.084747 
	C607.505920,490.717834 605.575012,499.275055 603.771667,508.236206 
	C604.726196,507.896454 605.352051,507.768433 605.883057,507.470978 
	C627.855774,495.159851 650.909546,485.310425 674.644409,476.953796 
	C676.117554,476.435150 677.769348,474.139313 677.932251,472.528168 
	C680.210815,449.993286 682.391418,427.446106 684.305298,404.877258 
	C687.721924,364.589020 687.389099,324.319092 682.770325,284.135742 
	C682.171387,278.924927 680.738342,273.670349 678.792603,268.794830 
	C676.991516,264.281616 673.432678,263.714661 670.162537,267.244019 
	C665.221008,272.577179 659.848328,277.856110 656.358887,284.107056 
	C651.363831,293.055328 647.902100,302.859558 643.487305,313.026855 
M744.879639,679.809570 
	C748.121582,682.002808 751.165588,680.892883 753.458008,678.543091 
	C756.914062,675.000488 760.755737,671.433228 762.938660,667.119873 
	C771.700134,649.807251 779.957947,632.237000 788.190613,614.663025 
	C789.176086,612.559265 789.277832,609.818054 789.093445,607.425964 
	C787.904358,592.002380 785.731323,576.606262 785.484131,561.175537 
	C785.322998,551.116821 780.023804,545.690979 772.832947,540.890015 
	C767.890503,537.590149 763.642090,537.809265 759.968384,542.415527 
	C756.084229,547.285583 752.535950,552.691162 750.094482,558.398987 
	C737.793213,587.157715 733.058350,617.427246 734.261169,648.519348 
	C734.683411,659.434998 737.276367,670.259827 744.879639,679.809570 
M820.108398,501.542236 
	C824.122986,479.137360 824.278870,456.494995 824.167358,433.847748 
	C824.051758,410.359955 823.412415,386.892700 817.937439,363.892883 
	C816.943054,359.715210 815.010071,355.760986 813.362366,351.303223 
	C806.935059,356.293884 804.983398,362.548553 803.226746,368.768372 
	C797.949768,387.453033 795.333130,406.674194 795.328003,425.957428 
	C795.317871,464.060699 796.639526,502.162628 796.999146,540.268982 
	C797.075989,548.409485 802.902161,552.686157 805.952209,558.808838 
	C806.438965,558.766968 806.925781,558.725098 807.412598,558.683228 
	C811.603516,539.922791 815.794434,521.162415 820.108398,501.542236 
M557.138733,617.604980 
	C567.356445,592.500061 575.208374,566.689941 580.863098,540.125122 
	C579.141907,540.348083 578.101257,540.817078 577.226257,541.498779 
	C550.872131,562.032288 529.054810,586.419739 514.359070,616.652039 
	C509.086395,627.498962 505.890076,639.064880 505.950836,651.281616 
	C505.996033,660.362793 511.072174,664.295776 519.926208,662.408264 
	C528.101196,660.665405 535.131531,656.711121 539.468689,649.629089 
	C545.698914,639.455933 551.106506,628.778992 557.138733,617.604980 
z"/>
<path fill="#F5F6F7" opacity="1.000000" stroke="none" 
	d="
M332.542572,602.436523 
	C348.324554,556.469177 364.466797,511.023224 379.328278,465.162262 
	C386.746490,442.270508 391.866333,418.631104 397.921051,395.302704 
	C399.092438,390.789459 401.992737,388.095184 405.862854,388.977356 
	C410.250092,389.977386 411.878021,393.227203 410.979889,397.294159 
	C408.219849,409.792175 405.647034,422.361481 402.156403,434.663269 
	C380.344604,511.533264 354.325317,586.961731 323.440857,660.667114 
	C317.732941,674.289001 310.922607,687.480591 304.016907,700.551575 
	C301.594727,705.136353 297.811768,709.285828 293.853333,712.713867 
	C286.517578,719.066589 277.308960,717.374268 271.962250,709.279907 
	C266.762604,701.408203 264.655029,692.408386 264.084595,683.272644 
	C262.642090,660.169434 261.278412,637.039673 260.808777,613.901855 
	C259.807953,564.591309 259.873688,515.256409 258.598938,465.954834 
	C257.425964,420.590332 252.763702,375.563171 239.932266,331.776001 
	C233.919510,311.257507 226.359299,291.367157 212.875153,274.345886 
	C204.155838,263.339386 193.660263,254.895325 179.226318,252.901947 
	C163.571579,250.739960 150.436142,256.796417 138.826370,266.484375 
	C123.025925,279.669281 110.978638,296.153748 100.879341,313.812378 
	C89.333549,334.000244 79.080132,354.927338 68.272728,375.537170 
	C67.887520,376.271759 67.626389,377.072021 67.233826,377.802063 
	C65.089050,381.790649 61.586151,383.336304 58.210094,381.462585 
	C54.395439,379.345459 53.500572,375.965881 55.334820,372.095520 
	C60.747669,360.674164 65.969093,349.147156 71.820168,337.951416 
	C85.263390,312.228546 100.001038,287.305878 119.983513,265.958099 
	C131.084824,254.098282 143.865387,244.688416 160.019516,240.857529 
	C184.671356,235.011398 204.081802,244.351227 220.112839,262.364532 
	C234.782974,278.848663 243.313126,298.734406 250.005554,319.425781 
	C261.811188,355.925995 268.481995,393.551056 269.845673,431.735291 
	C272.128723,495.664673 272.538605,559.658813 274.196625,623.613831 
	C274.748505,644.900940 276.460358,666.171997 278.202942,687.404358 
	C278.644012,692.778625 281.239288,697.976074 282.844696,703.254761 
	C283.545105,703.362244 284.245514,703.469788 284.945953,703.577332 
	C287.661713,700.167542 291.104462,697.111816 292.967865,693.286804 
	C301.193085,676.402954 309.268738,659.431030 316.798615,642.228394 
	C322.462891,629.287964 327.215607,615.948425 332.542572,602.436523 
z"/>
<path fill="#F5F6F7" opacity="1.000000" stroke="none" 
	d="
M470.822205,560.939575 
	C467.987793,593.321472 467.073517,625.219666 472.971954,656.944153 
	C473.728546,661.013428 474.941589,665.024292 476.254547,668.958252 
	C479.212799,677.821960 485.186829,683.046204 494.719696,684.102295 
	C499.495575,684.631348 502.002258,687.748596 501.479523,691.661560 
	C500.954559,695.591125 497.821930,697.666321 492.945587,697.169861 
	C480.564484,695.909607 471.363068,689.988953 465.981323,678.570190 
	C460.282623,666.478943 458.483307,653.459595 457.061188,640.377441 
	C456.379974,634.111267 456.054688,627.806396 455.473175,620.290710 
	C454.548798,622.217224 454.074982,623.239929 453.571899,624.247986 
	C447.726746,635.960327 442.204559,647.852295 435.853302,659.283569 
	C433.597717,663.343262 429.666992,666.723450 425.905548,669.647949 
	C414.781799,678.296692 401.606323,675.833801 395.167603,663.335876 
	C392.051483,657.287415 389.608398,650.186768 389.381531,643.477234 
	C388.393616,614.264038 392.956390,585.930237 408.112579,560.419128 
	C412.499847,553.034363 418.954865,546.504211 425.584290,540.912964 
	C435.538208,532.517822 447.147522,530.081299 459.920593,536.464661 
	C461.159821,528.568787 462.261871,521.061096 463.536804,513.582947 
	C464.494965,507.962982 467.322296,505.372559 471.439270,506.004211 
	C475.747253,506.665161 477.458313,510.364075 476.691620,516.122681 
	C475.137512,527.795410 473.861816,539.504883 472.406006,551.191101 
	C472.017883,554.306519 471.392761,557.392456 470.822205,560.939575 
M407.889404,595.446228 
	C405.979340,609.750916 403.553009,624.014954 402.420715,638.380981 
	C401.985260,643.905640 403.795807,649.931702 405.837219,655.247620 
	C408.559814,662.337219 413.667999,663.494263 419.007782,658.147461 
	C423.637177,653.512024 427.965820,648.150574 430.923401,642.343994 
	C444.611633,615.469849 452.622589,586.728821 457.867523,557.120422 
	C458.772308,552.012695 456.584381,549.586731 452.391235,548.147583 
	C450.386139,547.459473 448.207947,547.008606 446.094818,546.952393 
	C439.687866,546.782104 434.630646,550.052856 430.090729,554.060547 
	C417.829041,564.884705 412.347412,579.456726 407.889404,595.446228 
z"/>
<path fill="#BF1417" opacity="1.000000" stroke="none" 
	d="
M182.991333,574.973633 
	C181.452179,575.770142 179.913040,576.566711 177.786713,577.648804 
	C174.425568,579.914978 171.651611,581.895630 168.877655,583.876282 
	C168.877670,583.876282 168.971863,583.857300 168.548523,583.892883 
	C164.655762,585.086975 161.063675,588.143921 157.746124,583.931213 
	C155.095184,580.564941 157.192429,570.412354 160.929474,567.923523 
	C161.035065,568.031006 161.247208,568.244934 161.162537,568.630981 
	C160.412277,573.165649 159.746719,577.314270 159.016846,581.863831 
	C162.172897,581.624084 165.113968,582.209290 167.128830,581.104858 
	C174.989471,576.795898 182.582138,571.992920 190.216248,567.279419 
	C192.254715,566.020813 194.086319,564.427185 196.006897,562.993164 
	C196.000916,562.998901 195.992172,563.011597 196.352722,562.975952 
	C203.464508,560.139160 210.508621,557.578796 209.356308,548.033325 
	C214.013824,552.462463 214.030029,553.902832 209.571228,557.911072 
	C208.015396,559.309631 206.254837,560.480408 204.587769,561.755188 
	C204.587769,561.755188 204.254440,561.753174 203.786469,561.871826 
	C202.118134,562.937988 200.917755,563.885437 199.717377,564.832825 
	C199.717377,564.832825 199.331726,564.879028 198.904114,565.010986 
	C198.242538,565.393616 198.008560,565.644348 197.774582,565.895081 
	C196.687073,566.529419 195.599564,567.163818 194.012726,568.000061 
	C193.193893,568.372559 193.023788,568.638733 193.003113,569.000427 
	C193.003113,569.000427 193.000000,569.000000 192.649017,569.041809 
	C189.195801,571.046936 186.093567,573.010315 182.991333,574.973633 
z"/>
<path fill="#220305" opacity="1.000000" stroke="none" 
	d="
M159.936295,539.063416 
	C154.034470,537.606628 152.174911,532.304626 154.035690,522.239563 
	C154.631012,519.019409 160.161346,515.895569 164.158295,517.149963 
	C167.353119,518.152588 170.341217,519.969543 173.242050,521.721497 
	C179.713272,525.629700 186.085510,529.703064 192.445053,533.791687 
	C192.822632,534.034424 192.732452,535.004761 192.443939,535.941040 
	C187.354752,533.831055 182.681595,531.416504 178.004349,528.999756 
	C178.000259,528.997559 177.993210,528.993591 177.853928,528.684082 
	C172.953094,525.470886 168.373245,522.151978 163.310425,519.937195 
	C161.934311,519.335205 157.437271,521.835999 157.236832,523.303772 
	C156.521851,528.539734 155.607239,534.276855 160.342438,538.639160 
	C160.207275,538.780762 159.936295,539.063416 159.936295,539.063416 
z"/>
<path fill="#220305" opacity="1.000000" stroke="none" 
	d="
M160.823883,567.816040 
	C157.192429,570.412354 155.095184,580.564941 157.746124,583.931213 
	C161.063675,588.143921 164.655762,585.086975 168.499390,583.889404 
	C169.971451,585.364319 171.069305,586.878235 172.347794,588.641235 
	C172.354355,588.632080 172.018967,589.388428 171.806808,589.355347 
	C166.512375,588.529053 161.004684,588.226074 156.073441,586.386475 
	C154.409744,585.765869 153.517563,581.216187 153.497742,578.453369 
	C153.461136,573.351379 152.150314,567.176331 159.680054,565.515747 
	C161.305771,559.002319 167.147125,560.414368 171.852020,559.550537 
	C168.355225,562.549866 164.589554,565.182983 160.823883,567.816040 
z"/>
<path fill="#220305" opacity="1.000000" stroke="none" 
	d="
M205.009521,561.830566 
	C206.254837,560.480408 208.015396,559.309631 209.571228,557.911072 
	C214.030029,553.902832 214.013824,552.462463 209.352386,548.037720 
	C209.000580,547.999878 209.007812,547.991699 208.905121,547.661255 
	C207.206558,546.511963 205.610703,545.693115 203.879883,544.791870 
	C203.744919,544.709473 203.431076,544.670715 203.300110,544.352783 
	C199.801331,541.683960 196.433548,539.333130 193.065765,536.982178 
	C195.088257,536.989441 197.110748,536.996704 199.566620,537.001953 
	C200.000000,537.000000 199.999054,537.000000 199.999054,537.000000 
	C203.060226,539.534607 206.047546,542.166016 209.204681,544.574829 
	C212.002258,546.709351 215.136154,548.423584 217.801239,550.698608 
	C218.595245,551.376465 218.892090,554.245483 218.425583,554.539856 
	C214.219696,557.194153 209.793106,559.498657 205.009521,561.830566 
z"/>
<path fill="#BF1417" opacity="1.000000" stroke="none" 
	d="
M160.929474,567.923523 
	C164.589554,565.182983 168.355225,562.549866 172.271790,559.608276 
	C172.422699,559.299805 172.739288,559.211731 173.180969,559.110474 
	C174.068314,558.631653 174.513962,558.254150 174.959625,557.876648 
	C175.619415,557.462341 176.279205,557.048035 177.332489,556.196655 
	C179.130142,554.658691 180.534286,553.557861 181.938446,552.457092 
	C180.388443,551.476990 178.838440,550.496887 177.288422,549.516785 
	C177.288422,549.516785 177.201859,549.219482 176.960938,548.816650 
	C175.653107,547.400574 174.586212,546.387207 173.923737,545.263184 
	C178.153046,547.470032 181.977921,549.787659 185.802795,552.105286 
	C183.494843,554.263550 181.458817,556.862305 178.822998,558.489502 
	C173.127548,562.005554 167.124451,565.023315 161.247208,568.244934 
	C161.247208,568.244934 161.035065,568.031006 160.929474,567.923523 
z"/>
<path fill="#BF1417" opacity="1.000000" stroke="none" 
	d="
M192.952133,536.860107 
	C196.433548,539.333130 199.801331,541.683960 202.880219,544.459290 
	C199.204681,543.152710 195.622467,541.715759 192.476242,539.623291 
	C187.500092,536.313721 182.816086,532.564819 178.008438,529.001892 
	C182.681595,531.416504 187.354752,533.831055 192.368103,536.338257 
	C192.708282,536.430908 192.838501,536.737976 192.952133,536.860107 
z"/>
<path fill="#220305" opacity="1.000000" stroke="none" 
	d="
M177.166748,549.910156 
	C178.838440,550.496887 180.388443,551.476990 181.938446,552.457092 
	C180.534286,553.557861 179.130142,554.658691 177.395538,555.886536 
	C173.980698,556.056274 171.125076,555.730713 170.328354,552.066101 
	C172.668961,551.451904 174.857025,550.877747 177.166748,549.910156 
z"/>
<path fill="#220305" opacity="1.000000" stroke="none" 
	d="
M183.218353,575.251709 
	C186.093567,573.010315 189.195801,571.046936 192.649475,569.043396 
	C192.324722,570.254822 191.741089,571.569275 190.945724,572.739929 
	C190.188919,573.853760 189.210938,574.817261 187.563126,576.743591 
	C187.099930,576.607056 185.272659,576.068481 183.218353,575.251709 
z"/>
<path fill="#220305" opacity="1.000000" stroke="none" 
	d="
M169.406998,544.703613 
	C166.914673,544.543640 164.422363,544.383667 161.264023,544.180969 
	C160.950638,543.099854 160.474899,541.458679 159.967712,539.440430 
	C159.936295,539.063416 160.207275,538.780762 160.655640,538.772095 
	C162.988647,539.605225 164.873291,540.447083 166.762360,541.314331 
	C166.766769,541.339722 166.765717,541.391235 166.864899,541.686035 
	C167.778381,542.888367 168.592682,543.796021 169.406998,544.703613 
z"/>
<path fill="#220305" opacity="1.000000" stroke="none" 
	d="
M169.278351,583.919678 
	C171.651611,581.895630 174.425568,579.914978 177.540344,577.863647 
	C178.223053,583.938416 173.075836,582.787354 169.278351,583.919678 
z"/>
<path fill="#220305" opacity="1.000000" stroke="none" 
	d="
M198.756866,573.803589 
	C197.210495,574.133972 195.785477,574.096252 194.360443,574.058594 
	C194.800659,573.146851 195.240891,572.235107 195.681122,571.323364 
	C196.746811,572.027405 197.812500,572.731384 198.756866,573.803589 
z"/>
<path fill="#220305" opacity="1.000000" stroke="none" 
	d="
M204.083023,566.342041 
	C204.839310,567.290894 205.239609,568.215149 205.639923,569.139282 
	C204.368134,569.454041 203.096375,569.768860 201.824600,570.083618 
	C201.585999,569.710327 201.347397,569.337036 201.108795,568.963806 
	C201.981552,568.081665 202.854294,567.199524 204.083023,566.342041 
z"/>
<path fill="#220305" opacity="1.000000" stroke="none" 
	d="
M173.519318,545.373901 
	C174.586212,546.387207 175.653107,547.400574 176.848618,548.710083 
	C174.591995,548.766357 171.478577,549.965698 171.312744,545.564697 
	C172.089249,545.166870 172.542786,545.181458 173.118195,545.266602 
	C173.240082,545.337158 173.519318,545.373901 173.519318,545.373901 
z"/>
<path fill="#BF1417" opacity="1.000000" stroke="none" 
	d="
M172.996323,545.196045 
	C172.542786,545.181458 172.089249,545.166870 171.296616,545.187866 
	C170.619400,545.083679 170.281281,544.943787 169.675079,544.753784 
	C168.592682,543.796021 167.778381,542.888367 167.225677,541.563721 
	C169.323624,542.496460 171.159973,543.846313 172.996323,545.196045 
z"/>
<path fill="#220305" opacity="1.000000" stroke="none" 
	d="
M157.178711,561.445740 
	C156.278366,562.165894 155.114838,562.659302 153.951309,563.152710 
	C153.806442,562.621643 153.661560,562.090576 153.516693,561.559509 
	C154.649628,561.446045 155.782578,561.332520 157.178711,561.445740 
z"/>
<path fill="#220305" opacity="1.000000" stroke="none" 
	d="
M155.135880,515.147461 
	C154.334488,515.129395 153.763214,514.880127 153.191910,514.630920 
	C153.667114,514.154419 154.142319,513.677979 154.617538,513.201538 
	C154.867035,513.773132 155.116516,514.344727 155.135880,515.147461 
z"/>
<path fill="#220305" opacity="1.000000" stroke="none" 
	d="
M200.104889,564.890259 
	C200.917755,563.885437 202.118134,562.937988 203.649536,561.966858 
	C202.817825,562.944641 201.655106,563.946167 200.104889,564.890259 
z"/>
<path fill="#220305" opacity="1.000000" stroke="none" 
	d="
M156.623184,544.863281 
	C155.532227,544.935425 154.756866,544.935425 153.981522,544.935425 
	C154.166870,544.478271 154.352234,544.021057 154.537598,543.563904 
	C155.337997,543.973022 156.138397,544.382141 156.623184,544.863281 
z"/>
<path fill="#220305" opacity="1.000000" stroke="none" 
	d="
M151.210846,527.195129 
	C151.766113,526.952698 152.260254,527.005737 152.754410,527.058716 
	C152.641891,527.502563 152.529373,527.946411 152.416855,528.390259 
	C151.994476,528.090332 151.572113,527.790466 151.210846,527.195129 
z"/>
<path fill="#220305" opacity="1.000000" stroke="none" 
	d="
M200.000427,537.000000 
	C200.541885,536.394958 201.082932,535.789978 201.623962,535.184937 
	C201.917664,535.463745 202.211365,535.742615 202.505051,536.021423 
	C201.896759,536.342163 201.288467,536.662964 200.339615,536.991821 
	C199.999054,537.000000 200.000000,537.000000 200.000427,537.000000 
z"/>
<path fill="#220305" opacity="1.000000" stroke="none" 
	d="
M174.781036,557.659912 
	C174.513962,558.254150 174.068314,558.631653 173.313980,559.014038 
	C173.537689,558.493652 174.070084,557.968384 174.781036,557.659912 
z"/>
<path fill="#220305" opacity="1.000000" stroke="none" 
	d="
M193.218536,568.928101 
	C193.023788,568.638733 193.193893,568.372559 193.758453,568.187134 
	C193.900146,568.472107 193.710297,568.699890 193.218536,568.928101 
z"/>
<path fill="#220305" opacity="1.000000" stroke="none" 
	d="
M198.035950,565.860107 
	C198.008560,565.644348 198.242538,565.393616 198.737946,565.111511 
	C198.765366,565.328491 198.531342,565.576782 198.035950,565.860107 
z"/>
<path fill="#F7F7F8" opacity="1.000000" stroke="none" 
	d="
M174.504791,656.501160 
	C174.482193,656.492554 174.527405,656.509766 174.504791,656.501160 
z"/>
<path fill="#020303" opacity="1.000000" stroke="none" 
	d="
M679.045288,621.164612 
	C682.488647,578.046936 685.964844,535.399841 689.246155,492.737793 
	C689.622498,487.844635 691.176636,485.373352 696.287781,483.975586 
	C722.017273,476.939301 747.955933,471.193085 774.586792,468.894287 
	C776.667480,468.714722 778.692200,467.887238 780.976135,467.301025 
	C781.679504,488.438019 782.385010,509.638306 783.108521,531.380615 
	C781.502808,530.479858 780.247314,529.810242 779.025146,529.084595 
	C768.841858,523.037659 758.326904,524.016541 750.599731,532.978149 
	C745.785156,538.561890 741.509216,544.996155 738.557922,551.734741 
	C724.552490,583.713196 719.328735,617.412659 721.263062,652.125732 
	C721.913513,663.798889 725.429871,675.084473 732.226440,684.901917 
	C739.692566,695.686523 750.248230,697.560181 759.858704,688.637146 
	C766.829895,682.164612 772.717529,674.284790 778.018311,666.320374 
	C783.407837,658.222595 787.486450,649.252258 792.358826,640.258362 
	C795.611450,663.833801 798.818542,687.079224 802.105530,710.903870 
	C759.741272,719.810730 716.716064,723.680481 672.587463,727.350891 
	C674.744568,691.899597 676.882385,656.765137 679.045288,621.164612 
z"/>
<path fill="#020203" opacity="1.000000" stroke="none" 
	d="
M643.636475,312.662537 
	C647.902100,302.859558 651.363831,293.055328 656.358887,284.107056 
	C659.848328,277.856110 665.221008,272.577179 670.162537,267.244019 
	C673.432678,263.714661 676.991516,264.281616 678.792603,268.794830 
	C680.738342,273.670349 682.171387,278.924927 682.770325,284.135742 
	C687.389099,324.319092 687.721924,364.589020 684.305298,404.877258 
	C682.391418,427.446106 680.210815,449.993286 677.932251,472.528168 
	C677.769348,474.139313 676.117554,476.435150 674.644409,476.953796 
	C650.909546,485.310425 627.855774,495.159851 605.883057,507.470978 
	C605.352051,507.768433 604.726196,507.896454 603.771667,508.236206 
	C605.575012,499.275055 607.505920,490.717834 608.997803,482.084747 
	C615.034546,447.151703 620.289185,412.068146 627.124756,377.294189 
	C631.381958,355.636444 637.954041,334.433746 643.636475,312.662537 
z"/>
<path fill="#030303" opacity="1.000000" stroke="none" 
	d="
M744.586426,679.569702 
	C737.276367,670.259827 734.683411,659.434998 734.261169,648.519348 
	C733.058350,617.427246 737.793213,587.157715 750.094482,558.398987 
	C752.535950,552.691162 756.084229,547.285583 759.968384,542.415527 
	C763.642090,537.809265 767.890503,537.590149 772.832947,540.890015 
	C780.023804,545.690979 785.322998,551.116821 785.484131,561.175537 
	C785.731323,576.606262 787.904358,592.002380 789.093445,607.425964 
	C789.277832,609.818054 789.176086,612.559265 788.190613,614.663025 
	C779.957947,632.237000 771.700134,649.807251 762.938660,667.119873 
	C760.755737,671.433228 756.914062,675.000488 753.458008,678.543091 
	C751.165588,680.892883 748.121582,682.002808 744.586426,679.569702 
z"/>
<path fill="#040405" opacity="1.000000" stroke="none" 
	d="
M820.046875,501.972107 
	C815.794434,521.162415 811.603516,539.922791 807.412598,558.683228 
	C806.925781,558.725098 806.438965,558.766968 805.952209,558.808838 
	C802.902161,552.686157 797.075989,548.409485 796.999146,540.268982 
	C796.639526,502.162628 795.317871,464.060699 795.328003,425.957428 
	C795.333130,406.674194 797.949768,387.453033 803.226746,368.768372 
	C804.983398,362.548553 806.935059,356.293884 813.362366,351.303223 
	C815.010071,355.760986 816.943054,359.715210 817.937439,363.892883 
	C823.412415,386.892700 824.051758,410.359955 824.167358,433.847748 
	C824.278870,456.494995 824.122986,479.137360 820.046875,501.972107 
z"/>
<path fill="#040505" opacity="1.000000" stroke="none" 
	d="
M557.002014,617.961060 
	C551.106506,628.778992 545.698914,639.455933 539.468689,649.629089 
	C535.131531,656.711121 528.101196,660.665405 519.926208,662.408264 
	C511.072174,664.295776 505.996033,660.362793 505.950836,651.281616 
	C505.890076,639.064880 509.086395,627.498962 514.359070,616.652039 
	C529.054810,586.419739 550.872131,562.032288 577.226257,541.498779 
	C578.101257,540.817078 579.141907,540.348083 580.863098,540.125122 
	C575.208374,566.689941 567.356445,592.500061 557.002014,617.961060 
z"/>
<path fill="#040404" opacity="1.000000" stroke="none" 
	d="
M407.971710,595.044983 
	C412.347412,579.456726 417.829041,564.884705 430.090729,554.060547 
	C434.630646,550.052856 439.687866,546.782104 446.094818,546.952393 
	C448.207947,547.008606 450.386139,547.459473 452.391235,548.147583 
	C456.584381,549.586731 458.772308,552.012695 457.867523,557.120422 
	C452.622589,586.728821 444.611633,615.469849 430.923401,642.343994 
	C427.965820,648.150574 423.637177,653.512024 419.007782,658.147461 
	C413.667999,663.494263 408.559814,662.337219 405.837219,655.247620 
	C403.795807,649.931702 401.985260,643.905640 402.420715,638.380981 
	C403.553009,624.014954 405.979340,609.750916 407.971710,595.044983 
z"/>
<path fill="#F10705" opacity="1.000000" stroke="none" 
	d="
M173.118195,545.266602 
	C171.159973,543.846313 169.323624,542.496460 167.126495,541.268921 
	C166.765717,541.391235 166.766769,541.339722 166.725433,540.957947 
	C166.167206,539.935791 165.781952,538.998230 165.112701,538.701721 
	C159.396683,536.169128 160.195389,530.635437 159.308426,525.968689 
	C159.156723,525.170471 160.743210,523.170532 161.252487,523.261536 
	C164.233856,523.793823 168.161179,523.898254 169.819992,525.825134 
	C172.303055,528.709534 174.782700,529.199219 177.993210,528.993591 
	C177.993210,528.993591 178.000259,528.997559 178.004349,528.999756 
	C182.816086,532.564819 187.500092,536.313721 192.476242,539.623291 
	C195.622467,541.715759 199.204681,543.152710 203.011200,544.777222 
	C203.431076,544.670715 203.744919,544.709473 203.906403,545.169800 
	C205.714508,546.417297 207.361160,547.204468 209.007812,547.991699 
	C209.007812,547.991699 209.000580,547.999878 209.004486,547.995483 
	C210.508621,557.578796 203.464508,560.139160 196.211197,562.698914 
	C195.050018,562.098999 194.390915,561.740540 193.731812,561.382080 
	C193.613815,561.690369 193.495834,561.998657 193.377838,562.306885 
	C194.256195,562.533752 195.134552,562.760559 196.012909,562.987427 
	C194.086319,564.427185 192.254715,566.020813 190.216248,567.279419 
	C182.582138,571.992920 174.989471,576.795898 167.128830,581.104858 
	C165.113968,582.209290 162.172897,581.624084 159.016846,581.863831 
	C159.746719,577.314270 160.412277,573.165649 161.162537,568.630981 
	C167.124451,565.023315 173.127548,562.005554 178.822998,558.489502 
	C181.458817,556.862305 183.494843,554.263550 185.802795,552.105286 
	C181.977921,549.787659 178.153046,547.470032 173.923737,545.263184 
	C173.519318,545.373901 173.240082,545.337158 173.118195,545.266602 
z"/>
<path fill="#BF1417" opacity="1.000000" stroke="none" 
	d="
M177.853928,528.684082 
	C174.782700,529.199219 172.303055,528.709534 169.819992,525.825134 
	C168.161179,523.898254 164.233856,523.793823 161.252487,523.261536 
	C160.743210,523.170532 159.156723,525.170471 159.308426,525.968689 
	C160.195389,530.635437 159.396683,536.169128 165.112701,538.701721 
	C165.781952,538.998230 166.167206,539.935791 166.721024,540.932495 
	C164.873291,540.447083 162.988647,539.605225 160.790787,538.630432 
	C155.607239,534.276855 156.521851,528.539734 157.236832,523.303772 
	C157.437271,521.835999 161.934311,519.335205 163.310425,519.937195 
	C168.373245,522.151978 172.953094,525.470886 177.853928,528.684082 
z"/>
<path fill="#BF1417" opacity="1.000000" stroke="none" 
	d="
M208.905121,547.661255 
	C207.361160,547.204468 205.714508,546.417297 204.041351,545.252197 
	C205.610703,545.693115 207.206558,546.511963 208.905121,547.661255 
z"/>
<path fill="#BF1417" opacity="1.000000" stroke="none" 
	d="
M196.006912,562.993164 
	C195.134552,562.760559 194.256195,562.533752 193.377838,562.306885 
	C193.495834,561.998657 193.613815,561.690369 193.731812,561.382080 
	C194.390915,561.740540 195.050018,562.098999 195.850647,562.734497 
	C195.992172,563.011597 196.000916,562.998901 196.006912,562.993164 
z"/>
</svg>